<?xml version="1.0" encoding="UTF-8"?>
<svg xmlns="http://www.w3.org/2000/svg" xmlns:xlink="http://www.w3.org/1999/xlink" viewBox="0 0 498.76 264.98">
  <defs>
    <style>
      .cls-1 { fill: #8FD2E9; }
      .cls-2 { fill: #08467c; }
      .cls-3 { fill: url(#gradient-foundation); }
      .cls-4 { fill: #fff; }
    </style>
    <linearGradient id="gradient-foundation" x1="0" y1="132.49" x2="478.04" y2="132.49" gradientUnits="userSpaceOnUse">
      <stop offset="0" stop-color="#8FD2E9"/>
      <stop offset="1" stop-color="#4A9DBF"/>
    </linearGradient>
  </defs>
  <g>
    <path class="cls-2" d="M293.45,228.23v1.34c.12-.42.24-.84.35-1.27.01-.02.01-.05.02-.07h-.37Z"/>
    <path class="cls-4" d="M389.74,168.29v.03c-.64,0-1.3-.01-1.98-.03h1.98Z"/>
    <polygon class="cls-2" points="294.05 228.23 293.44 230.42 293.44 228.23 294.05 228.23"/>
    <path class="cls-2" d="M244.24,159.42c-3.6-14.48-7.73-31.09-11.88-47.71-12.17,9.17-23.85,18.43-34.96,27.62,2.42,9.13,5.02,18.96,7.67,28.96h41.4c-.72-2.88-1.46-5.84-2.23-8.87ZM220.99,228.3c3.04,11.46,5.64,21.29,7.47,28.22,1.03,7,8.88,8.38,14.96,8.21,8.37.04,18.65.04,27.79-.02,11.08.05,13.38-2.64,15.95-12.97,1.92-6.54,4.15-14.41,6.28-21.95.14-.5.28-1,.42-1.49h-72.87ZM487.2,170.2l-.14-.18c-2.32-2.91-5.07-5.63-8.06-7.98-4.04-3.28-9.12-6.25-12.03-8.36-1.07-.85-2.43-1.82-2.63-3.2-.04-2.27,1.6-3.41,3.61-5.23,2.09-1.74,4.37-3.35,6.51-5.07,23.54-17.69,25.52-55.82,5.44-76.83-22.28-23.61-56.19-21.48-86.16-21.52-17.13-.07-34.35-.13-51.53-.08-17.66,9.15-34.81,19.07-51.35,29.48-6.09,26.42-13.14,56.97-19.14,82.95-1.11,4.78-2.2,9.5-3.27,14.11h42.16c7.94-28.41,15.86-56.57,23.74-84.49,1.67-6.73,4.52-5.89,11.29-5.86,4-.01,7.83,0,12.58,0,18.87.05,31.32-.06,46.18.03,9.87.12,20.45.13,29.04,4.75,19.87,9.84,17.79,41.42-3.67,47.99-10.36,3.65-21.52,2.97-32.19,3.1-9.29,0-23.02.02-33.62,0-5.1,0-11.55,0-16.02.02-4.07.01-5.87.08-6.97,2.02-2.65,6.28-4.65,16.22-6.87,23.35-.81,2.96-1.73,6.02-2.55,9.09h52.31c1.3-.04,2.62-.02,3.89,0,.68.02,1.34.03,1.98.03s1.2-.01,1.76-.03c16.28.53,34.16-2.35,48.58,6.61,14.69,9.33,17.05,32.97,3.83,44.54l-.18.16c-10.3,8.8-23.55,8.69-37.18,8.69-6.57-.13-13.39.19-20.04.01h-66c-3.26.73-6.43,1.84-7.53,7.02-1.74,6.05-4.68,16.71-6.33,22.65-.38,1.7-1.03,3.46-.77,5.07.45,1.8,2.58,1.59,4.18,1.73,12.25,0,33.05.08,46.21.04,12.72-.02,25.85-.1,38.62-.1,32.91.43,72.94,2.3,94.03-27.69,13.66-19.53,13.11-48.21-1.71-66.82Z"/>
    <path class="cls-2" d="M173.77,159.49c-9.99,36.3-21.01,76.83-27.48,98.61-2.38,6.11-9.81,6.79-15.6,6.72-6.66.08-14.37.1-21.19.13-4.94,0-14.16.44-17-2.33-1.52-4.18-3.48-10.3-5.75-17.87,8.33-9.13,18.85-20.31,31.29-32.85l1.05-1.05,1.67-1.66,1.44-1.44c14.81-14.76,32.12-31.21,51.57-48.26Z"/>
    <g>
      <!-- Heart shape for Foundation -->
      <path class="cls-1" d="M230,195c-5-15,10-25,25-15,15-10,30,0,25,15-5,15-25,30-25,30s-20-15-25-30Z"/>
      <text x="275" y="220" font-family="Arial, sans-serif" font-size="22" font-weight="bold" fill="#8FD2E9">Foundation</text>
    </g>
    <path class="cls-3" d="M477.34,1.32c-27.76.28-80.49,16.28-88.59,18.79h-.01c-.34.11-.6.19-.78.24-.06.02-.11.04-.17.06-.04.01-.07.02-.11.03-17.83,6.08-35.32,13.28-52.37,21.34-14.61,6.9-28.9,14.43-42.8,22.42-21.7,12.45-42.45,26.02-62.01,40.01-12.26,8.77-24.05,17.71-35.31,26.66-5.97,4.74-11.79,9.49-17.46,14.22-19.4,16.18-36.95,32.09-52.28,46.78-3.2,3.07-6.3,6.1-9.31,9.02-12.68,12.45-23.59,23.78-32.47,33.34-15.94,17.13-25.4,28.57-26.96,30.46-.11.15-36.72.23-52.46.26t-.01.02H.79c-.65,0-1.02-.65-.62-1.08,25-27.78,49.9-52.64,74.48-74.9-14.54-53.72-31.27-118.79-37.64-141.87-.86-5.2,5.66-4.99,9.79-5.23,8.4-.08,17.57-.13,26.08.03,9.41-.29,12.27,5.54,13.67,13.69,3.45,15.08,7.21,31.42,11.36,49.81,3.97,17.56,8.06,35.53,12.08,53.15,11.7-9.59,23.31-18.58,34.78-27.06,8.74-33.6,17.76-68.11,22.65-84.58,2.99-5.52,11.23-4.97,16.86-5.09,6.63,0,13.84,0,20.17,0,10.57-.22,15.46,2.27,17.17,12.61,1.82,7.18,3.81,15.14,5.92,23.54,31.71-17.74,61.74-31.5,89.47-42.15,49.07-18.8,90.88-27.92,121.85-32.27C454.61,1.37,467.55.39,477.21,0c1.03-.05,1.14,1.22.13,1.32Z"/>
  </g>
</svg>
