<?xml version="1.0" encoding="UTF-8"?>
<svg id="Warstwa_1" data-name="Warstwa 1" xmlns="http://www.w3.org/2000/svg" xmlns:xlink="http://www.w3.org/1999/xlink" viewBox="0 0 566.93 566.93">
  <defs>
    <style>
      .cls-1 {
        fill: #565657;
      }

      .cls-2 {
        fill: url(#Gradient_bez_nazwy_15);
      }

      .cls-3 {
        fill: url(#Gradient_bez_nazwy_9);
      }
    </style>
    <linearGradient id="Gradient_bez_nazwy_15" data-name="Gradient bez nazwy 15" x1="34.09" y1="283.46" x2="512.12" y2="283.46" gradientUnits="userSpaceOnUse">
      <stop offset=".03" stop-color="#764d3c"/>
      <stop offset=".31" stop-color="#d7ad4e"/>
      <stop offset=".47" stop-color="#f5e4bb"/>
      <stop offset=".6" stop-color="#d9af4e"/>
      <stop offset="1" stop-color="#734d3b"/>
    </linearGradient>
    <linearGradient id="Gradient_bez_nazwy_9" data-name="Gradient bez nazwy 9" x1="277.58" y1="348.04" x2="406.87" y2="348.04" gradientUnits="userSpaceOnUse">
      <stop offset="0" stop-color="#d3b767"/>
      <stop offset=".33" stop-color="#d9af4e"/>
      <stop offset="1" stop-color="#866349"/>
    </linearGradient>
  </defs>
  <path class="cls-1" d="m154.85,360.16h0s1.44-1.43,1.44-1.43c-.48.47-.96.95-1.44,1.43Zm366.44-38.98l-.14-.18c-2.32-2.91-5.07-5.63-8.06-7.98-4.04-3.28-9.12-6.25-12.03-8.36-1.07-.85-2.43-1.82-2.63-3.2-.04-2.27,1.6-3.41,3.61-5.23,2.09-1.74,4.37-3.35,6.51-5.07,23.54-17.69,25.52-55.82,5.44-76.83-22.28-23.61-56.19-21.48-86.16-21.52-17.13-.07-34.35-.13-51.53-.08-17.66,9.15-34.81,19.07-51.35,29.48-6.09,26.42-13.14,56.97-19.14,82.95-1.11,4.78-2.2,9.5-3.27,14.11h42.16c7.94-28.41,15.86-56.57,23.74-84.49,1.67-6.73,4.52-5.89,11.29-5.86,4-.01,7.83,0,12.58,0,18.87.05,31.32-.06,46.18.03,9.87.12,20.45.13,29.04,4.75,19.87,9.84,17.79,41.42-3.67,47.99-10.36,3.65-21.52,2.97-32.19,3.1-9.29,0-23.02.02-33.62,0-5.1,0-11.55,0-16.02.02-4.07.01-5.87.08-6.97,2.02-2.65,6.28-4.65,16.22-6.87,23.35-.81,2.96-1.73,6.02-2.55,9.09h52.31c1.3-.04,2.62-.02,3.89,0,.68.02,1.34.03,1.98.03s1.2-.01,1.76-.03c16.28.53,34.16-2.35,48.58,6.61,14.69,9.33,17.05,32.97,3.83,44.54l-.18.16c-10.3,8.8-23.55,8.69-37.18,8.69-6.57-.13-13.39.19-20.04.01h-66c-3.26.73-6.43,1.84-7.53,7.02-1.74,6.05-4.68,16.71-6.33,22.65-.38,1.7-1.03,3.46-.77,5.07.45,1.8,2.58,1.59,4.18,1.73,12.25,0,33.05.08,46.21.04,12.72-.02,25.85-.1,38.62-.1,32.91.43,72.94,2.3,94.03-27.69,13.66-19.53,13.11-48.21-1.71-66.82Zm-266.21,58.1c3.04,11.46,5.64,21.29,7.47,28.22,1.03,7,8.88,8.38,14.96,8.21,8.37.04,18.65.04,27.79-.02,11.08.05,13.38-2.64,15.95-12.97,1.92-6.54,4.15-14.41,6.28-21.95.14-.5.28-1,.42-1.49h-72.87Zm23.25-68.88c-3.6-14.48-7.73-31.09-11.88-47.71-12.17,9.17-23.85,18.43-34.96,27.62,2.42,9.13,5.02,18.96,7.67,28.96h41.4c-.72-2.88-1.46-5.84-2.23-8.87Z"/>
  <path class="cls-2" d="m511.42,152.3c-27.76.28-80.49,16.28-88.59,18.79h-.01c-.34.11-.6.19-.78.24-.06.02-.11.04-.17.06-.04.01-.07.02-.11.03-17.83,6.08-35.32,13.28-52.37,21.34-14.61,6.9-28.9,14.43-42.8,22.42-21.7,12.45-42.45,26.02-62.01,40.01-12.26,8.77-24.05,17.71-35.31,26.66-5.97,4.74-11.79,9.49-17.46,14.22-19.4,16.18-36.95,32.09-52.28,46.78-3.2,3.07-6.3,6.1-9.31,9.02-12.68,12.45-23.59,23.78-32.47,33.34-15.94,17.13-25.4,28.57-26.96,30.46-.11.15-36.72.23-52.46.26t-.01.02h-3.45c-.65,0-1.02-.65-.62-1.08,25-27.78,49.9-52.64,74.48-74.9-14.54-53.72-31.27-118.79-37.64-141.87-.86-5.2,5.66-4.99,9.79-5.23,8.4-.08,17.57-.13,26.08.03,9.41-.29,12.27,5.54,13.67,13.69,3.45,15.08,7.21,31.42,11.36,49.81,3.97,17.56,8.06,35.53,12.08,53.15,11.7-9.59,23.31-18.58,34.78-27.06,8.74-33.6,17.76-68.11,22.65-84.58,2.99-5.52,11.23-4.97,16.86-5.09,6.63,0,13.84,0,20.17,0,10.57-.22,15.46,2.27,17.17,12.61,1.82,7.18,3.81,15.14,5.92,23.54,31.71-17.74,61.74-31.5,89.47-42.15,49.07-18.8,90.88-27.92,121.85-32.27,15.75-2.2,28.69-3.18,38.35-3.57,1.03-.05,1.14,1.22.13,1.32Z"/>
  <path class="cls-1" d="m207.86,310.47c-9.99,36.3-21.01,76.83-27.48,98.61-2.38,6.11-9.81,6.79-15.6,6.72-6.66.08-14.37.1-21.19.13-4.94,0-14.16.44-17-2.33-1.52-4.18-3.48-10.3-5.75-17.87,1.07-1.17,2.18-2.38,3.32-3.62,1.08-1.17,2.19-2.37,3.33-3.6,1.88-2.02,3.84-4.11,5.89-6.27.66-.7,1.32-1.4,2-2.11,5.1-5.37,10.7-11.15,16.75-17.25l1.05-1.05,1.67-1.66,1.44-1.44c.93-.92,1.86-1.85,2.81-2.79.94-.93,1.9-1.87,2.86-2.82,1.93-1.9,3.9-3.82,5.9-5.76,1-.97,2.02-1.95,3.04-2.93,3.85-3.7,7.83-7.48,11.95-11.32,1.12-1.05,2.26-2.1,3.4-3.16,2.25-2.09,4.55-4.2,6.88-6.32,4.76-4.33,9.67-8.73,14.73-13.16Z"/>
  <path class="cls-3" d="m290.33,336.09c2.18-1.23,5.2-1.54,5.2-1.54,1.55-.16,2.82.98,2.82,2.54v3.29c0,1.56-.18,2.82-.39,2.8s-1.03-.08-1.41-.09h-.37c-2.65,0-4.81.76-6.44,2.27-1.64,1.52-2.04,4.26-2.04,4.26-.23,1.54-.41,4.08-.41,5.64v10.12c0,1.56-1.28,2.83-2.83,2.83h-4.04c-1.56,0-2.83-1.28-2.83-2.83v-27.79c0-1.56,1.28-2.83,2.83-2.83h3.6c1.56,0,2.83.99,2.83,2.2s.86,1.25,1.9.1c0,0,.17-.19,1.58-.97Zm115.73,26.33c-.56-1.46-2.08-2.09-3.39-1.41h-1.53c-1.29,0-2.31-.37-3.05-1.14l-.75-.77c-.21-1.38-.37-3.78-.37-5.34v-8.7c0-1.56,1.28-2.83,2.83-2.83h2.66c1.56,0,2.83-1.28,2.83-2.83v-1.79c0-1.56-1.28-2.83-2.83-2.83h-2.66c-1.56,0-2.83-1.28-2.83-2.83v-1.74c0-1.56-1.28-2.83-2.83-2.83h-4.04c-1.56,0-2.83,1.28-2.83,2.83v1.74c0,1.56-1.16,2.83-2.58,2.83s-2.58,1.28-2.58,2.83v1.79c0,1.56,1.16,2.83,2.58,2.83s2.58,1.28,2.58,2.83v8.82c0,1.56.2,4.09.44,5.64,0,0,.65,4.18,2.86,6.19,2.2,2.03,5.27,3.03,9.21,3.03,1.49,0,2.93-.18,4.33-.53l1.38-.35c1.2-.68,1.73-2.42,1.17-3.88l-.59-1.55Zm-71.74-20.11c1.53,2.59,2.3,5.69,2.3,9.31v.36c-.03.49-.08,1.11-.1,1.36s-1.35.88-2.91.88h-19.65c-1.56,0-2.6.76-2.31,1.7l.44.75c.81,1.39,1.95,2.44,3.42,3.18,1.47.72,3.2,1.08,5.19,1.08,1.78,0,3.36-.27,4.7-.81,1.35-.53,1.5-.65,1.5-.65,1.21-.98,3.07-.84,4.13.31l1.31,1.43c1.05,1.15.96,2.93-.2,3.97,0,0-1.34,1.19-3.65,2.13-2.32.94-5,1.4-8.03,1.4-3.81,0-7.17-.75-10.04-2.25-2.88-1.49-5.12-3.54-6.69-6.12-1.57-2.59-2.37-5.54-2.37-8.87s.78-6.34,2.33-8.93c1.56-2.59,3.69-4.62,6.39-6.1,2.69-1.47,5.73-2.21,9.14-2.21s6.23.69,8.86,2.08c2.63,1.38,4.72,3.38,6.25,5.97Zm-9.68,6.25c1.56,0,2.63-.9,2.38-2.01l-.48-.85c-.71-1.29-1.68-2.29-2.91-3.03-1.26-.72-2.69-1.08-4.37-1.08s-3.12.36-4.38,1.08c-1.27.74-2.25,1.76-2.96,3.06l-.45.84c-.25,1.09.82,1.99,2.38,1.99h10.8Zm45.92-12.72c-2.1-1.06-4.47-1.58-7.13-1.58-2.87,0-5.42.59-7.66,1.8-1.32.71-1.36.74-1.36.74-1.14,1.07-2.06,1.05-2.06-.05s-1.28-1.99-2.83-1.99h-3.59c-1.56,0-2.83,1.28-2.83,2.83v27.79c0,1.56,1.28,2.83,2.83,2.83h4.03c1.56,0,2.83-1.28,2.83-2.83v-10.87c0-1.56.12-4.1.26-5.66,0,0,.09-.94.77-2.28.68-1.32,1.63-2.3,2.86-2.95,1.23-.63,2.6-.96,4.13-.96,2.15,0,3.84.63,5.01,1.92,1.19,1.29,1.42,3.16,1.42,3.16.2,1.55.36,4.09.36,5.65v12c0,1.56,1.28,2.83,2.83,2.83h4.03c1.56,0,2.83-1.28,2.83-2.83v-13.48c0-1.56-.12-4.1-.27-5.66,0,0-.32-3.37-1.53-5.55-1.21-2.17-2.85-3.79-4.94-4.85Z"/>
</svg>