<?xml version="1.0" encoding="UTF-8"?>
<svg id="Warstwa_1" data-name="Warstwa 1" xmlns="http://www.w3.org/2000/svg" xmlns:xlink="http://www.w3.org/1999/xlink" viewBox="0 0 498.76 264.98">
  <defs>
    <style>
      .cls-1 {
        fill: #e95011;
      }

      .cls-1, .cls-2, .cls-3, .cls-4, .cls-5 {
        stroke-width: 0px;
      }

      .cls-2 {
        fill: #08467c;
      }

      .cls-3 {
        fill: #fff;
      }

      .cls-4 {
        fill: url(#Gradient_bez_nazwy_6);
      }

      .cls-5 {
        fill: #3a3a3a;
      }
    </style>
    <linearGradient id="Gradient_bez_nazwy_6" data-name="Gradient bez nazwy 6" x1="0" y1="132.49" x2="478.04" y2="132.49" gradientUnits="userSpaceOnUse">
      <stop offset="0" stop-color="#ee7328"/>
      <stop offset="1" stop-color="#9f3505"/>
    </linearGradient>
  </defs>
  <g>
    <path class="cls-2" d="M293.45,228.23v1.34c.12-.42.24-.84.35-1.27.01-.02.01-.05.02-.07h-.37Z"/>
    <path class="cls-5" d="M120.76,209.18h0s1.44-1.43,1.44-1.43c-.48.47-.96.95-1.44,1.43ZM487.2,170.2l-.14-.18c-2.32-2.91-5.07-5.63-8.06-7.98-4.04-3.28-9.12-6.25-12.03-8.36-1.07-.85-2.43-1.82-2.63-3.2-.04-2.27,1.6-3.41,3.61-5.23,2.09-1.74,4.37-3.35,6.51-5.07,23.54-17.69,25.52-55.82,5.44-76.83-22.28-23.61-56.19-21.48-86.16-21.52-17.13-.07-34.35-.13-51.53-.08-17.66,9.15-34.81,19.07-51.35,29.48-6.09,26.42-13.14,56.97-19.14,82.95-1.11,4.78-2.2,9.5-3.27,14.11h42.16c7.94-28.41,15.86-56.57,23.74-84.49,1.67-6.73,4.52-5.89,11.29-5.86,4-.01,7.83,0,12.58,0,18.87.05,31.32-.06,46.18.03,9.87.12,20.45.13,29.04,4.75,19.87,9.84,17.79,41.42-3.67,47.99-10.36,3.65-21.52,2.97-32.19,3.1-9.29,0-23.02.02-33.62,0-5.1,0-11.55,0-16.02.02-4.07.01-5.87.08-6.97,2.02-2.65,6.28-4.65,16.22-6.87,23.35-.81,2.96-1.73,6.02-2.55,9.09h52.31c1.3-.04,2.62-.02,3.89,0,.68.02,1.34.03,1.98.03s1.2-.01,1.76-.03c16.28.53,34.16-2.35,48.58,6.61,14.69,9.33,17.05,32.97,3.83,44.54l-.18.16c-10.3,8.8-23.55,8.69-37.18,8.69-6.57-.13-13.39.19-20.04.01h-66c-3.26.73-6.43,1.84-7.53,7.02-1.74,6.05-4.68,16.71-6.33,22.65-.38,1.7-1.03,3.46-.77,5.07.45,1.8,2.58,1.59,4.18,1.73,12.25,0,33.05.08,46.21.04,12.72-.02,25.85-.1,38.62-.1,32.91.43,72.94,2.3,94.03-27.69,13.66-19.53,13.11-48.21-1.71-66.82ZM220.99,228.3c3.04,11.46,5.64,21.29,7.47,28.22,1.03,7,8.88,8.38,14.96,8.21,8.37.04,18.65.04,27.79-.02,11.08.05,13.38-2.64,15.95-12.97,1.92-6.54,4.15-14.41,6.28-21.95.14-.5.28-1,.42-1.49h-72.87ZM244.24,159.42c-3.6-14.48-7.73-31.09-11.88-47.71-12.17,9.17-23.85,18.43-34.96,27.62,2.42,9.13,5.02,18.96,7.67,28.96h41.4c-.72-2.88-1.46-5.84-2.23-8.87Z"/>
    <path class="cls-3" d="M389.74,168.29v.03c-.64,0-1.3-.01-1.98-.03h1.98Z"/>
    <polygon class="cls-2" points="294.05 228.23 293.44 230.42 293.44 228.23 294.05 228.23"/>
    <path class="cls-4" d="M477.34,1.32c-27.76.28-80.49,16.28-88.59,18.79h-.01c-.34.11-.6.19-.78.24-.06.02-.11.04-.17.06-.04.01-.07.02-.11.03-17.83,6.08-35.32,13.28-52.37,21.34-14.61,6.9-28.9,14.43-42.8,22.42-21.7,12.45-42.45,26.02-62.01,40.01-12.26,8.77-24.05,17.71-35.31,26.66-5.97,4.74-11.79,9.49-17.46,14.22-19.4,16.18-36.95,32.09-52.28,46.78-3.2,3.07-6.3,6.1-9.31,9.02-12.68,12.45-23.59,23.78-32.47,33.34-15.94,17.13-25.4,28.57-26.96,30.46-.11.15-36.72.23-52.46.26t-.01.02H.79c-.65,0-1.02-.65-.62-1.08,25-27.78,49.9-52.64,74.48-74.9-14.54-53.72-31.27-118.79-37.64-141.87-.86-5.2,5.66-4.99,9.79-5.23,8.4-.08,17.57-.13,26.08.03,9.41-.29,12.27,5.54,13.67,13.69,3.45,15.08,7.21,31.42,11.36,49.81,3.97,17.56,8.06,35.53,12.08,53.15,11.7-9.59,23.31-18.58,34.78-27.06,8.74-33.6,17.76-68.11,22.65-84.58,2.99-5.52,11.23-4.97,16.86-5.09,6.63,0,13.84,0,20.17,0,10.57-.22,15.46,2.27,17.17,12.61,1.82,7.18,3.81,15.14,5.92,23.54,31.71-17.74,61.74-31.5,89.47-42.15,49.07-18.8,90.88-27.92,121.85-32.27C454.61,1.37,467.55.39,477.21,0c1.03-.05,1.14,1.22.13,1.32Z"/>
    <path class="cls-3" d="M389.1,19.96c-.12.05-.23.1-.35.15h-.01c-.34.11-.6.19-.78.24l1.14-.39Z"/>
    <g>
      <path class="cls-1" d="M190.06,206.99c1.06.19,2.28-.13,3.2.5,1.27.92.92,3.19-.43,4.24-1.51,1.07-4.26,1.06-6.19.86-3.25-.34-5.68-2.49-6.28-5.52-.8-3.41-.12-9.01-.51-12.98-.25-1.42-1.24-1.7-2.04-2.44-1.98-1.85,1.47-3.76,2.42-5.26,1.12-1.44,1.46-3.19,2.81-4.06,2.56-1.65,3.74.73,4.04,2.98.67,2.29,3.53,1.37,5.27,1.96,1.98.59,2.06,3.88.15,4.62-1.57.74-4.16-.32-5.31,1.24-.7,2.43-.16,6.01-.32,8.75-.07,2.85.58,4.62,3.02,5.08l.17.03Z"/>
      <path class="cls-1" d="M212.48,186.79c2.26-.03,2.37,2.99,1.62,4.81-.67,1.69-2.58,1.49-4.06,1.96-2.37.61-4.04,2.8-4.38,5.01-.53,3.79.09,8.95-.34,12.44-.28,1.39-1.88,1.32-3.05,1.37-.98,0-2.53.07-3.18-.44-.36-.31-.37-.86-.38-1.35,0-4.22-.01-17.88,0-21.89-.08-1.92,2.26-1.86,3.8-1.26.71.31,1.26.9,1.65,1.43.5.68.87,1.19,1.5,1.07.63-.14,1.18-.7,1.71-1.09,1.42-1.19,3.17-1.98,4.95-2.04h.16Z"/>
      <path class="cls-1" d="M229.23,186.58c7.48.05,10.39,4.67,9.98,11.56,0,3.1.02,9.13-.02,11.94.09,1.36-.81,2.38-2.22,2.21-1.67-.02-2.96-1.89-4.52-1.93-.77,0-1.7.72-2.78,1.3-3.59,1.84-9.13,1.3-11.18-2.57-1.48-2.64-1.22-6.88.75-9.1,1.57-1.84,3.93-2.52,6.28-2.9,1.96-.46,6.55.11,6.44-2.56-.87-3.7-5.62-2.5-8.36-1.97-.77.05-1.51-.2-2.08-.72-3.62-4.49,4.6-5.27,7.51-5.24h.2ZM232.25,200.78c-1.61-.48-4.17-.02-5.68.47-2.4.7-3.4,5.14-.65,6.15,2.64.92,5.86-.61,6.41-3.29.17-.96.46-2.38.01-3.24l-.09-.09Z"/>
      <path class="cls-1" d="M253.51,212.56c-5.87-.25-8.72-5.31-8.97-11.21-.34-5.44.79-12.31,6.79-14.15,2.37-.75,5.19-.29,7.21,1.05.87.52,1.48.86,1.79.64.58-.39.2-2.55.2-4.77.08-1.89-.39-5.28.74-6.29,1.15-.91,2.96-.64,4.31-.61,1.05.11,1.54.2,1.61,1.12.04,4.46.01,27.3.01,32.53,0,.59-.1,1.06-.74,1.26-.81.29-2.31.27-3.56-.42-.95-.43-1.92-1.43-2.88-1.3-1.01.06-2.36,1.38-3.96,1.81-.77.23-1.57.35-2.37.35h-.19ZM256.1,207.24c4.02.12,5-4.08,4.88-7.32.05-3.59-.81-7.59-4.66-7.67-4.18-.15-5.25,4.19-5.14,7.83,0,3.32.99,6.95,4.73,7.17h.19Z"/>
      <path class="cls-1" d="M284.22,186.66c5.15-.2,9.87,3.55,10.53,8.71.18,1.66.74,4-.26,5.38-1.19,1.15-5.06.46-7.15.64-2.18.23-6.2-.63-7.36.78-.56.94.56,3.26,2.26,4.3,2.27,1.4,5.59,1.1,8.16.38.77-.17,1.69-.47,2.37-.05.84.48,1.02,1.99.37,3.28-1.53,2.94-6.37,2.63-9.44,2.53-6.23-.27-10.93-5.35-11-11.51-.73-7.52,3.46-14.57,11.33-14.44h.2ZM284.07,191.55c-2.01,0-3.83,1.38-4.32,3.34-.15.71-.5,1.43,0,1.85,1.73.27,6.63.04,8.41.1.47-.03.66-.25.64-.76-.08-2.35-2.03-4.65-4.55-4.53h-.19Z"/>
      <path class="cls-1" d="M318.91,223.3c-4.9-.08-9.41-1.39-10.24-5.98-.18-1.21.04-2.48.62-3.54.59-1.16,1.87-2,2.53-2.99.81-1.25-.03-2.73-.03-4.1-.03-1.59,1.07-2.97,1.03-4.12-.03-1.65-1.41-2.87-1.93-4.4-1.18-3.11-.44-7.12,2.19-9.23,3.94-3.27,9.24-2.06,14.16-1.98,1.81.13,4.57-.4,5.75,1.21.54,1.6-1.77,2.8-2.27,4.21-.66,1.23-.09,3.26-.62,5.12-.36,1.38-1.09,2.68-2.13,3.66-1.71,1.64-4.04,2.27-6.37,2.55-1.24.21-3.76.47-3.7,1.82.09.61,1.07,1.19,2.42,1.36,2.88.35,6.3-.03,9.01,1.27,3.65,1.55,4.54,6.55,2.55,9.96-2.58,4.34-8.03,5.14-12.75,5.18h-.22ZM319.42,218.8c2.2-.02,4.49-.24,6.3-1.49,1.19-.78,1.7-2.62.74-3.62-1.22-1.22-3.18-1.07-4.8-1.14-2.44.05-4.77-.35-6.52,1.35-2.44,2.94,1.2,5.1,4.08,4.91h.21ZM320.53,199.77c4.56.17,4.77-8.52.5-8.92-2.57-.38-4.29,1.41-4.25,4.23-.18,2.27,1.06,4.75,3.55,4.69h.19Z"/>
      <path class="cls-1" d="M350.79,186.79c2.26-.03,2.37,2.99,1.62,4.81-.67,1.69-2.58,1.49-4.06,1.96-2.37.61-4.04,2.8-4.38,5.01-.53,3.79.09,8.95-.34,12.44-.28,1.39-1.88,1.32-3.05,1.37-.98,0-2.53.07-3.18-.44-.36-.31-.37-.86-.38-1.35,0-4.22-.01-17.88,0-21.89-.08-1.92,2.26-1.86,3.8-1.26.71.31,1.26.9,1.65,1.43.5.68.87,1.19,1.5,1.07.63-.14,1.18-.69,1.71-1.09,1.42-1.19,3.17-1.98,4.95-2.04h.16Z"/>
      <path class="cls-1" d="M379.43,199.7c.4,9.92-8.51,15.88-17.44,11.68-8.71-4.53-8.27-20.91,1.33-24.04,8.62-2.84,16.39,3.03,16.11,12.17v.2ZM362.62,199.66c-.18,3.65,1.37,8.04,5.61,7.49,3.42-.24,4.45-4.15,4.41-7.12.07-3.56-.66-7.32-4.26-7.8-4.26-.63-5.89,3.43-5.76,7.22v.21Z"/>
      <path class="cls-1" d="M406.52,187.3c1.1.27.58,3.28.7,4.77-.02,5.8.04,15.58-.03,18.68-.29,2.53-3.77,1.33-5.2.32-1.74-1.21-2.77-.17-4.69.72-4.76,2.18-11.22-.14-12.1-5.54-.81-4.02-.27-11.35-.42-16.26.05-1.42.02-2.19,1-2.65,1.35-.46,3.64-.43,4.73.08,1.39,1.06.73,2.55.9,4.87,0,1.39,0,2.86,0,4.25.24,4.39-.77,7.01,1.99,9.59,1.44,1.03,3.55.82,4.88-.32,3.24-3.3,2.04-8.28,2.31-12.83.1-1.79-.35-4.34.7-5.34,1.03-.82,3.64-.74,5.14-.37l.1.04Z"/>
      <path class="cls-1" d="M427.81,186.78c5.86.22,8.71,5.32,8.96,11.19.43,5.4-1.04,12.53-6.94,14.19-2.26.71-4.93.22-6.9-.89-.88-.43-1.49-.6-1.82-.31-.73.56-.17,5.2-.33,7.23,0,1.66.15,4.22-.85,4.71-1.18.7-2.9.48-4.19.45-1.04-.11-1.53-.19-1.61-1.08-.04-4.49,0-28.19-.02-33.71,0-.59.04-1.07.66-1.3.79-.3,2.44-.36,3.74.35.93.4,1.89,1.42,2.8,1.31.99-.04,2.45-1.44,4.1-1.85.71-.2,1.45-.31,2.19-.31h.19ZM425.45,192.12c-4.02-.03-4.77,4.19-4.66,7.73-.06,3.16.93,7.36,4.63,7.28,3.95.04,4.71-4.33,4.67-7.63-.01-3.28-.65-7.12-4.46-7.37h-.19Z"/>
    </g>
  </g>
  <path class="cls-5" d="M173.77,159.49c-9.99,36.3-21.01,76.83-27.48,98.61-2.38,6.11-9.81,6.79-15.6,6.72-6.66.08-14.37.1-21.19.13-4.94,0-14.16.44-17-2.33-1.52-4.18-3.48-10.3-5.75-17.87,1.07-1.17,2.18-2.38,3.32-3.62,1.08-1.17,2.19-2.37,3.33-3.6,1.88-2.02,3.84-4.11,5.89-6.27.66-.7,1.32-1.4,2-2.11,5.1-5.37,10.7-11.15,16.75-17.25l1.05-1.05,1.67-1.66,1.44-1.44c.93-.92,1.86-1.85,2.81-2.79.94-.93,1.9-1.87,2.86-2.82,1.93-1.9,3.9-3.82,5.9-5.76,1-.97,2.02-1.95,3.04-2.93,3.85-3.7,7.83-7.48,11.95-11.32,1.12-1.05,2.26-2.1,3.4-3.16,2.25-2.09,4.55-4.2,6.88-6.32,4.76-4.33,9.67-8.73,14.73-13.16Z"/>
</svg>